#N canvas 3032 160 633 514 12;
#X obj 9 7 cnv 15 290 150 empty empty GeneralInput 20 12 0 14 -204786
-66577 0;
#X obj 29 41 udpreceive 9001;
#X obj 29 127 loadbang;
#X obj 29 69 unpackOSC;
#X obj 29 95 routeOSC /loop1 /loop2 /loop3 /loop4;
#X obj 414 135 hsl 128 15 0 1 0 0 empty empty empty -2 -8 0 10 -262144
-258113 -1 0 1;
#X obj 413 162 hsl 128 15 0 1 0 0 empty empty empty -2 -8 0 10 -262144
-4032 -1 0 1;
#X text 553 135 volume;
#X text 560 161 delay;
#N canvas 2091 207 698 455 drums 0;
#X obj 32 71 cnv 15 160 150 empty empty OSC 20 12 0 14 -257985 -66577
0;
#X obj 199 72 cnv 15 240 150 empty empty LOAD_SOUNDS 20 12 0 14 -258113
-66577 0;
#X obj 205 191 soundfiler;
#X obj 457 131 line~;
#X obj 223 235 cnv 15 200 150 empty empty Delay 20 12 0 14 -4032 -66577
0;
#X obj 236 296 *~ 0.5;
#X obj 232 352 *~;
#X obj 455 189 *~;
#X obj 114 196 line~;
#X obj 49 192 pack;
#X obj 129 130 metro 100;
#X msg 142 157 1000;
#X obj 43 103 inlet;
#X obj 204 98 inlet;
#X obj 265 352 inlet;
#X obj 585 94 inlet;
#X obj 333 428 outlet~;
#X text 45 29 drums;
#X obj 43 160 unpack f f;
#X msg 204 121 read -resize kick.wav kick;
#X obj 237 322 vd~ snare 100;
#X obj 231 270 delwrite~ snare 1000;
#N canvas 0 50 450 250 (subpatch) 0;
#X array kick 10820 float 2;
#X coords 0 1 10820 -1 123 38 1;
#X restore 42 252 graph;
#N canvas 0 50 450 250 (subpatch) 0;
#X array snare 14133 float 2;
#X coords 0 1 14133 -1 124 35 1;
#X restore 42 310 graph;
#N canvas 0 50 450 250 (subpatch) 0;
#X array hat 10282 float 2;
#X coords 0 1 10282 -1 125 36 1;
#X restore 41 372 graph;
#X obj 456 161 tabread~ snare;
#X obj 446 273 line~;
#X obj 444 331 *~;
#X obj 445 303 tabread~ kick;
#X obj 567 266 line~;
#X obj 565 324 *~;
#X msg 567 231 0 \, 705600 20000;
#X obj 566 296 tabread~ hat;
#X obj 299 7 inlet;
#X obj 300 34 select 0 1 2 3 4 5 6 7 8 9 10 11 12 13 14 15;
#X msg 204 144 read -resize snare.wav snare;
#X msg 205 167 read -resize hat.wav hat;
#X msg 446 238 0 \, 705600 20000;
#X msg 457 96 0 \, 705600 20000;
#X text 363 6 select sound based on step in sequence;
#X text 83 104 delay control;
#X text 290 296 feedback;
#X text 337 322 delay time;
#X text 313 351 delay level;
#X text 578 189 play samples;
#X text 593 115 sample level;
#X text 15 423 samples written to buffer;
#X connect 3 0 25 0;
#X connect 5 0 21 0;
#X connect 6 0 16 0;
#X connect 7 0 16 0;
#X connect 8 0 20 0;
#X connect 9 0 8 0;
#X connect 10 0 11 0;
#X connect 11 0 9 1;
#X connect 12 0 18 0;
#X connect 13 0 10 0;
#X connect 13 0 19 0;
#X connect 13 0 35 0;
#X connect 13 0 36 0;
#X connect 14 0 6 1;
#X connect 15 0 7 1;
#X connect 15 0 27 1;
#X connect 15 0 30 1;
#X connect 18 0 9 0;
#X connect 18 1 5 1;
#X connect 19 0 2 0;
#X connect 20 0 5 0;
#X connect 20 0 6 0;
#X connect 25 0 7 0;
#X connect 25 0 21 0;
#X connect 26 0 28 0;
#X connect 27 0 16 0;
#X connect 28 0 27 0;
#X connect 29 0 32 0;
#X connect 30 0 16 0;
#X connect 31 0 29 0;
#X connect 32 0 30 0;
#X connect 33 0 34 0;
#X connect 34 0 37 0;
#X connect 34 1 31 0;
#X connect 34 2 38 0;
#X connect 34 3 31 0;
#X connect 34 5 31 0;
#X connect 34 6 38 0;
#X connect 34 7 31 0;
#X connect 34 8 37 0;
#X connect 34 9 31 0;
#X connect 34 10 38 0;
#X connect 34 11 31 0;
#X connect 34 13 31 0;
#X connect 34 14 38 0;
#X connect 34 15 38 0;
#X connect 35 0 2 0;
#X connect 36 0 2 0;
#X connect 37 0 26 0;
#X connect 38 0 3 0;
#X restore 453 202 pd drums;
#X obj 554 475 dac~;
#X obj 22 298 hsl 128 15 0 1 0 0 empty empty empty -2 -8 0 10 -262144
-258113 -1 0 1;
#N canvas 2069 110 721 453 lead 0;
#X obj 31 65 cnv 15 160 150 empty empty OSC 20 12 0 14 -257985 -66577
0;
#X obj 42 97 inlet;
#X text 44 24 lead;
#X obj 248 325 phasor~;
#X obj 318 391 inlet;
#X obj 245 406 *~ 0.5;
#X obj 99 423 outlet~;
#X obj 264 255 mtof;
#X obj 301 207 spigot;
#X obj 292 141 &;
#X obj 275 102 < 72;
#X obj 318 101 > 60;
#X obj 38 304 rev3~ 100 90 3000 20;
#X obj 87 339 *~ 0.5;
#X obj 40 154 unpack f f;
#X obj 318 259 mtof;
#X obj 319 326 phasor~;
#X obj 346 235 + 19;
#X obj 304 358 *~ 0.5;
#X text 386 235 8ve + 5th;
#X obj 98 398 lop~ 3000;
#X obj 172 393 inlet;
#X obj 187 249 * 0.5;
#X obj 102 368 *~ 0.6;
#X obj 144 342 inlet;
#X text 365 127 ensure MIDI is in correct range;
#X text 358 272 convert MIDI to frequency value;
#X text 384 324 play saw waves;
#X text 369 400 vol control;
#X text 373 364 2nd wave vol control;
#X text 35 405 filter;
#X text 36 279 reverb;
#X connect 1 0 14 0;
#X connect 3 0 5 0;
#X connect 3 0 12 0;
#X connect 4 0 5 1;
#X connect 5 0 20 0;
#X connect 7 0 3 0;
#X connect 8 0 7 0;
#X connect 8 0 17 0;
#X connect 9 0 8 1;
#X connect 10 0 9 0;
#X connect 11 0 9 1;
#X connect 12 0 13 0;
#X connect 13 0 23 0;
#X connect 14 0 8 0;
#X connect 14 0 10 0;
#X connect 14 0 11 0;
#X connect 14 1 13 1;
#X connect 14 1 22 0;
#X connect 15 0 16 0;
#X connect 16 0 18 0;
#X connect 17 0 15 0;
#X connect 18 0 5 0;
#X connect 18 0 12 0;
#X connect 20 0 6 0;
#X connect 21 0 20 1;
#X connect 22 0 18 1;
#X connect 23 0 20 0;
#X connect 24 0 23 1;
#X restore 215 366 pd lead;
#X obj 228 297 hsl 128 15 0 1 0 0 empty empty empty -2 -8 0 10 -262144
-258113 -1 0 1;
#X obj 446 293 hsl 128 15 0 1 0 0 empty empty empty -2 -8 0 10 -262144
-258113 -1 0 1;
#X obj 230 320 hsl 128 15 1000 10000 0 0 empty empty empty -2 -8 0
10 -262144 -4034 -1 0 1;
#X obj 448 315 hsl 128 15 0 2000 0 0 empty empty empty -2 -8 0 10 -262144
-4034 -1 0 1;
#X obj 453 227 s~ sig1;
#X obj 37 379 s~ sig2;
#X obj 216 392 s~ sig3;
#X obj 487 392 s~ sig4;
#N canvas 899 226 450 300 sig 0;
#X obj 42 73 r~ sig1;
#X obj 112 74 r~ sig2;
#X obj 174 74 r~ sig3;
#X obj 244 75 r~ sig4;
#X obj 158 181 outlet~;
#X text 54 29 recieve signal from inst patches;
#X connect 0 0 4 0;
#X connect 1 0 4 0;
#X connect 2 0 4 0;
#X connect 3 0 4 0;
#X restore 561 446 pd sig;
#N canvas 2251 121 450 300 seq 0;
#X obj 34 11 inlet;
#X obj 33 119 metro;
#X obj 57 51 inlet;
#X msg 58 75 tempo \$1 permin;
#X msg 199 49 0.5;
#X obj 168 123 metro;
#X msg 199 75 1 \$1;
#X obj 199 99 /;
#X obj 287 124 metro;
#X msg 318 76 1 \$1;
#X obj 318 100 /;
#X obj 31 164 f;
#X obj 63 165 + 1;
#X obj 286 160 f;
#X obj 318 161 + 1;
#X obj 32 219 mod 16;
#X obj 32 259 outlet;
#X obj 167 257 outlet;
#X obj 284 259 outlet;
#X text 82 264 drum;
#X text 225 265 bass;
#X text 338 260 arp;
#X obj 285 215 mod 4;
#X msg 318 50 2;
#X text 109 7 split the tempo;
#X text 232 47 half notes;
#X text 349 50 quarter notes;
#X text 38 190 16 step sequence;
#X text 287 188 4 step sequence;
#X connect 0 0 1 0;
#X connect 0 0 4 0;
#X connect 0 0 5 0;
#X connect 0 0 23 0;
#X connect 0 0 8 0;
#X connect 1 0 11 0;
#X connect 2 0 3 0;
#X connect 3 0 1 0;
#X connect 3 0 5 0;
#X connect 3 0 8 0;
#X connect 4 0 6 0;
#X connect 5 0 17 0;
#X connect 6 0 7 0;
#X connect 7 0 5 1;
#X connect 8 0 13 0;
#X connect 9 0 10 0;
#X connect 10 0 8 1;
#X connect 11 0 12 0;
#X connect 11 0 15 0;
#X connect 12 0 11 1;
#X connect 13 0 14 0;
#X connect 13 0 22 0;
#X connect 14 0 13 1;
#X connect 15 0 16 0;
#X connect 22 0 18 0;
#X connect 23 0 9 0;
#X restore 254 226 pd seq;
#X floatatom 292 199 5 0 0 0 - - -;
#X obj 254 204 tgl 15 0 empty empty empty 17 7 0 10 -262144 -1 -1 1
1;
#X text 332 200 tempo;
#N canvas 1965 62 615 451 arp 0;
#X obj 173 396 outlet~;
#X obj 480 40 inlet;
#X obj 192 25 inlet;
#X obj 364 39 inlet;
#X obj 98 262 inlet;
#X obj 169 310 *~;
#X obj 210 173 spigot;
#X obj 235 74 > 0.5;
#X obj 184 75 < 0.5;
#X obj 189 220 phasor~;
#N canvas 2573 332 450 288 Majnotes 0;
#X obj 93 45 inlet;
#X obj 249 47 inlet;
#X obj 181 254 outlet;
#X obj 178 217 mtof;
#X obj 249 84 select 0 1 2 3;
#N canvas 2570 690 496 277 logic 0;
#X obj 99 41 inlet;
#X obj 21 246 outlet;
#X obj 87 247 outlet;
#X obj 148 248 outlet;
#X obj 214 246 outlet;
#N canvas 676 357 450 300 major 0;
#X obj 53 59 == 60;
#X obj 134 18 inlet;
#X obj 103 165 spigot;
#X obj 166 163 + 4;
#X obj 204 165 + 3;
#X obj 243 165 + 4;
#X obj 113 246 outlet;
#X obj 212 245 outlet;
#X obj 162 248 outlet;
#X obj 271 249 outlet;
#X obj 95 60 == 65;
#X obj 139 59 == 72;
#X obj 208 58 != 72 && != 65 && != 60;
#X msg 286 108 0;
#X msg 57 102 1;
#X msg 94 102 1;
#X msg 141 102 1;
#X floatatom 38 174 5 0 0 0 - - -;
#X connect 0 0 14 0;
#X connect 0 0 17 0;
#X connect 1 0 0 0;
#X connect 1 0 2 0;
#X connect 1 0 10 0;
#X connect 1 0 11 0;
#X connect 1 0 12 0;
#X connect 2 0 3 0;
#X connect 2 0 6 0;
#X connect 3 0 4 0;
#X connect 3 0 8 0;
#X connect 4 0 7 0;
#X connect 4 0 5 0;
#X connect 5 0 9 0;
#X connect 10 0 15 0;
#X connect 11 0 16 0;
#X connect 12 0 13 0;
#X connect 13 0 2 1;
#X connect 14 0 2 1;
#X connect 15 0 2 1;
#X connect 16 0 2 1;
#X restore 49 118 pd major;
#N canvas 1101 424 450 300 minor 0;
#X obj 167 34 inlet;
#X obj 102 160 spigot;
#X obj 109 228 outlet;
#X obj 208 227 outlet;
#X obj 158 230 outlet;
#X obj 267 231 outlet;
#X obj 42 74 == 62;
#X obj 84 75 == 64;
#X obj 131 73 == 69;
#X obj 166 163 + 3;
#X obj 204 165 + 4;
#X obj 243 165 + 3;
#X msg 44 116 1;
#X msg 84 117 1;
#X msg 127 116 1;
#X msg 283 108 0;
#X obj 205 58 != 69 && != 64 && != 62;
#X connect 0 0 1 0;
#X connect 0 0 6 0;
#X connect 0 0 7 0;
#X connect 0 0 8 0;
#X connect 0 0 16 0;
#X connect 1 0 2 0;
#X connect 1 0 9 0;
#X connect 6 0 12 0;
#X connect 7 0 13 0;
#X connect 8 0 14 0;
#X connect 9 0 4 0;
#X connect 9 0 10 0;
#X connect 10 0 3 0;
#X connect 10 0 11 0;
#X connect 11 0 5 0;
#X connect 12 0 1 1;
#X connect 13 0 1 1;
#X connect 14 0 1 1;
#X connect 15 0 1 1;
#X connect 16 0 15 0;
#X restore 116 118 pd minor;
#N canvas 1209 425 450 300 dim 0;
#X obj 167 34 inlet;
#X obj 112 155 spigot;
#X obj 204 165 + 3;
#X obj 243 165 + 4;
#X obj 109 228 outlet;
#X obj 208 227 outlet;
#X obj 158 230 outlet;
#X obj 267 231 outlet;
#X obj 171 76 == 71;
#X obj 166 163 + 3;
#X obj 233 77 != 71;
#X msg 166 117 1;
#X msg 233 113 0;
#X connect 0 0 1 0;
#X connect 0 0 8 0;
#X connect 0 0 10 0;
#X connect 1 0 4 0;
#X connect 1 0 9 0;
#X connect 2 0 5 0;
#X connect 2 0 3 0;
#X connect 3 0 7 0;
#X connect 8 0 11 0;
#X connect 9 0 2 0;
#X connect 9 0 6 0;
#X connect 10 0 12 0;
#X connect 11 0 1 1;
#X connect 12 0 1 1;
#X restore 188 117 pd dim;
#N canvas 1323 424 450 300 dom 0;
#X obj 167 34 inlet;
#X obj 115 104 spigot;
#X obj 204 165 + 3;
#X obj 109 228 outlet;
#X obj 208 227 outlet;
#X obj 158 230 outlet;
#X obj 267 231 outlet;
#X obj 166 163 + 4;
#X obj 243 164 + 3;
#X msg 232 89 1;
#X msg 289 89 0;
#X obj 237 48 == 67;
#X obj 289 53 != 67;
#X connect 0 0 1 0;
#X connect 0 0 11 0;
#X connect 0 0 12 0;
#X connect 1 0 3 0;
#X connect 1 0 7 0;
#X connect 2 0 4 0;
#X connect 2 0 8 0;
#X connect 7 0 2 0;
#X connect 7 0 5 0;
#X connect 8 0 6 0;
#X connect 9 0 1 1;
#X connect 10 0 1 1;
#X connect 11 0 9 0;
#X connect 12 0 10 0;
#X restore 240 116 pd dom;
#X text 227 5 each of these patches filters;
#X text 211 24 for notes of the key that would;
#X text 213 40 be major or minor (or diminished;
#X text 195 58 or dominant) then using the position;
#X text 172 72 of the sequencer \, plays the notes of chord;
#X connect 0 0 5 0;
#X connect 0 0 6 0;
#X connect 0 0 7 0;
#X connect 0 0 8 0;
#X connect 5 0 1 0;
#X connect 5 1 2 0;
#X connect 5 2 3 0;
#X connect 5 3 4 0;
#X connect 6 0 1 0;
#X connect 6 1 2 0;
#X connect 6 2 3 0;
#X connect 6 3 4 0;
#X connect 7 0 1 0;
#X connect 7 1 2 0;
#X connect 7 2 3 0;
#X connect 7 3 4 0;
#X connect 8 0 1 0;
#X connect 8 1 2 0;
#X connect 8 2 3 0;
#X connect 8 3 4 0;
#X restore 131 79 pd logic;
#X obj 65 172 spigot;
#X obj 116 172 spigot;
#X obj 167 171 spigot;
#X obj 218 171 spigot;
#X msg 70 138 1;
#X msg 102 138 0;
#X msg 135 140 1;
#X msg 167 140 0;
#X msg 200 140 1;
#X msg 232 140 0;
#X msg 271 138 1;
#X msg 303 139 0;
#X text 338 130 on/off based;
#X text 339 146 on keyswap val;
#X text 193 78 chords;
#X text 217 215 convert MIDI to frequency vals;
#X connect 0 0 5 0;
#X connect 1 0 4 0;
#X connect 3 0 2 0;
#X connect 4 0 10 0;
#X connect 4 0 17 0;
#X connect 4 1 11 0;
#X connect 4 1 12 0;
#X connect 4 2 13 0;
#X connect 4 2 14 0;
#X connect 4 3 15 0;
#X connect 4 3 16 0;
#X connect 5 0 6 0;
#X connect 5 1 7 0;
#X connect 5 2 8 0;
#X connect 5 3 9 0;
#X connect 6 0 3 0;
#X connect 7 0 3 0;
#X connect 8 0 3 0;
#X connect 9 0 3 0;
#X connect 10 0 6 1;
#X connect 11 0 6 1;
#X connect 12 0 7 1;
#X connect 13 0 7 1;
#X connect 14 0 8 1;
#X connect 15 0 8 1;
#X connect 16 0 9 1;
#X connect 17 0 9 1;
#X restore 458 143 pd Majnotes;
#N canvas 2114 118 450 369 adsr 0;
#X obj 154 19 inlet;
#X obj 40 22 inlet~;
#X obj 155 61 f;
#X obj 222 34 nbx 5 14 5 1e+037 0 0 empty empty empty 0 -8 0 10 -262144
-1 -1 5 256;
#X obj 155 98 t f f;
#X obj 194 133 delay;
#X obj 195 177 f;
#X obj 241 153 nbx 5 14 1000 1e+037 0 0 empty empty empty 0 -8 0 10
-262144 -1 -1 1000 256;
#X msg 194 208 0 \$1;
#X obj 195 246 line~;
#X msg 141 210 1 \$1;
#X obj 151 287 *~;
#X obj 157 328 outlet~;
#X text 248 224 simple ADR based on line~;
#X text 250 245 note is triggered then;
#X text 251 266 ramped down to 0;
#X text 286 35 attack time in ms;
#X text 300 150 decay time in ms;
#X connect 0 0 2 0;
#X connect 1 0 11 0;
#X connect 2 0 4 0;
#X connect 3 0 2 1;
#X connect 4 0 10 0;
#X connect 4 1 5 0;
#X connect 5 0 6 0;
#X connect 6 0 8 0;
#X connect 7 0 6 1;
#X connect 8 0 9 0;
#X connect 9 0 11 1;
#X connect 10 0 9 0;
#X connect 11 0 12 0;
#X restore 179 281 pd adsr;
#X msg 154 118 1;
#X msg 220 119 1;
#X msg 260 117 0;
#X msg 190 118 0;
#X obj 135 168 spigot;
#N canvas 2104 329 450 288 minnotes 0;
#X obj 93 45 inlet;
#X obj 249 47 inlet;
#X obj 181 254 outlet;
#X obj 178 217 mtof;
#X obj 249 84 select 0 1 2 3;
#N canvas 2085 676 480 310 logic 0;
#X obj 99 70 inlet;
#X obj 21 275 outlet;
#X obj 87 276 outlet;
#X obj 148 277 outlet;
#X obj 214 275 outlet;
#N canvas 2101 123 450 300 major 0;
#X obj 134 18 inlet;
#X obj 103 165 spigot;
#X obj 166 163 + 4;
#X obj 204 165 + 3;
#X obj 243 165 + 4;
#X obj 113 246 outlet;
#X obj 212 245 outlet;
#X obj 162 248 outlet;
#X obj 271 249 outlet;
#X msg 286 108 0;
#X msg 57 102 1;
#X msg 94 102 1;
#X obj 53 59 == 64;
#X obj 95 60 == 69;
#X obj 216 61 != 64 && != 69;
#X connect 0 0 1 0;
#X connect 0 0 12 0;
#X connect 0 0 13 0;
#X connect 0 0 14 0;
#X connect 1 0 2 0;
#X connect 1 0 5 0;
#X connect 2 0 3 0;
#X connect 2 0 7 0;
#X connect 3 0 6 0;
#X connect 3 0 4 0;
#X connect 4 0 8 0;
#X connect 9 0 1 1;
#X connect 10 0 1 1;
#X connect 11 0 1 1;
#X connect 12 0 10 0;
#X connect 13 0 11 0;
#X connect 14 0 9 0;
#X restore 49 147 pd major;
#N canvas 2184 0 501 300 minor 0;
#X obj 167 34 inlet;
#X obj 102 160 spigot;
#X obj 109 228 outlet;
#X obj 208 227 outlet;
#X obj 158 230 outlet;
#X obj 267 231 outlet;
#X obj 166 163 + 3;
#X obj 204 165 + 4;
#X obj 243 165 + 3;
#X msg 44 116 1;
#X msg 84 117 1;
#X msg 127 116 1;
#X msg 283 108 0;
#X obj 42 74 == 60;
#X obj 91 72 == 65;
#X obj 131 73 == 67;
#X msg 166 115 1;
#X obj 172 72 == 72;
#X obj 244 63 != 60 && != 65 && != 67 && != 72;
#X connect 0 0 1 0;
#X connect 0 0 13 0;
#X connect 0 0 14 0;
#X connect 0 0 15 0;
#X connect 0 0 17 0;
#X connect 0 0 18 0;
#X connect 1 0 2 0;
#X connect 1 0 6 0;
#X connect 6 0 4 0;
#X connect 6 0 7 0;
#X connect 7 0 3 0;
#X connect 7 0 8 0;
#X connect 8 0 5 0;
#X connect 9 0 1 1;
#X connect 10 0 1 1;
#X connect 11 0 1 1;
#X connect 12 0 1 1;
#X connect 13 0 9 0;
#X connect 14 0 10 0;
#X connect 15 0 11 0;
#X connect 16 0 1 1;
#X connect 17 0 16 0;
#X connect 18 0 12 0;
#X restore 116 147 pd minor;
#N canvas 2754 0 450 300 dim 0;
#X obj 167 34 inlet;
#X obj 112 155 spigot;
#X obj 204 165 + 3;
#X obj 243 165 + 4;
#X obj 109 228 outlet;
#X obj 208 227 outlet;
#X obj 158 230 outlet;
#X obj 267 231 outlet;
#X obj 166 163 + 3;
#X msg 166 117 1;
#X msg 233 113 0;
#X obj 233 77 != 62;
#X obj 186 84 == 62;
#X connect 0 0 1 0;
#X connect 0 0 11 0;
#X connect 0 0 12 0;
#X connect 1 0 4 0;
#X connect 1 0 8 0;
#X connect 2 0 5 0;
#X connect 2 0 3 0;
#X connect 3 0 7 0;
#X connect 8 0 2 0;
#X connect 8 0 6 0;
#X connect 9 0 1 1;
#X connect 10 0 1 1;
#X connect 11 0 10 0;
#X connect 12 0 9 0;
#X restore 188 146 pd dim;
#N canvas 1723 0 450 300 dom 0;
#X obj 167 34 inlet;
#X obj 115 104 spigot;
#X obj 204 165 + 3;
#X obj 109 228 outlet;
#X obj 208 227 outlet;
#X obj 158 230 outlet;
#X obj 267 231 outlet;
#X obj 166 163 + 4;
#X obj 243 164 + 3;
#X msg 232 89 1;
#X msg 289 89 0;
#X obj 237 48 == 71;
#X obj 306 55 != 71;
#X connect 0 0 1 0;
#X connect 0 0 11 0;
#X connect 0 0 12 0;
#X connect 1 0 3 0;
#X connect 1 0 7 0;
#X connect 2 0 4 0;
#X connect 2 0 8 0;
#X connect 7 0 2 0;
#X connect 7 0 5 0;
#X connect 8 0 6 0;
#X connect 9 0 1 1;
#X connect 10 0 1 1;
#X connect 11 0 9 0;
#X connect 12 0 10 0;
#X restore 240 145 pd dom;
#X text 227 5 each of these patches filters;
#X text 211 24 for notes of the key that would;
#X text 213 40 be major or minor (or diminished;
#X text 195 58 or dominant) then using the position;
#X text 172 72 of the sequencer \, plays the notes of chord;
#X connect 0 0 5 0;
#X connect 0 0 6 0;
#X connect 0 0 7 0;
#X connect 0 0 8 0;
#X connect 5 0 1 0;
#X connect 5 1 2 0;
#X connect 5 2 3 0;
#X connect 5 3 4 0;
#X connect 6 0 1 0;
#X connect 6 1 2 0;
#X connect 6 2 3 0;
#X connect 6 3 4 0;
#X connect 7 0 1 0;
#X connect 7 1 2 0;
#X connect 7 2 3 0;
#X connect 7 3 4 0;
#X connect 8 0 1 0;
#X connect 8 1 2 0;
#X connect 8 2 3 0;
#X connect 8 3 4 0;
#X restore 131 79 pd logic;
#X obj 65 172 spigot;
#X obj 116 172 spigot;
#X obj 167 171 spigot;
#X obj 218 171 spigot;
#X msg 70 138 1;
#X msg 102 138 0;
#X msg 135 140 1;
#X msg 167 140 0;
#X msg 200 140 1;
#X msg 232 140 0;
#X msg 271 138 1;
#X msg 303 139 0;
#X text 340 125 on/off based;
#X text 341 141 on keyswap val;
#X text 193 78 chords;
#X text 217 215 convert MIDI to frequency vals;
#X connect 0 0 5 0;
#X connect 1 0 4 0;
#X connect 3 0 2 0;
#X connect 4 0 10 0;
#X connect 4 0 17 0;
#X connect 4 1 11 0;
#X connect 4 1 12 0;
#X connect 4 2 13 0;
#X connect 4 2 14 0;
#X connect 4 3 15 0;
#X connect 4 3 16 0;
#X connect 5 0 6 0;
#X connect 5 1 7 0;
#X connect 5 2 8 0;
#X connect 5 3 9 0;
#X connect 6 0 3 0;
#X connect 7 0 3 0;
#X connect 8 0 3 0;
#X connect 9 0 3 0;
#X connect 10 0 6 1;
#X connect 11 0 6 1;
#X connect 12 0 7 1;
#X connect 13 0 7 1;
#X connect 14 0 8 1;
#X connect 15 0 8 1;
#X connect 16 0 9 1;
#X connect 17 0 9 1;
#X restore 367 140 pd minnotes;
#X obj 237 348 rev3~ 100 90 3000 20;
#X text 207 310 volume control;
#X text 403 39 MIDI inlet;
#X text 91 86 key change;
#X text 251 223 sawtooth wave;
#X text 389 328 reverb not controlled by;
#X text 389 348 participants;
#X text 390 369 sawtooth was too dry without;
#X text 345 169 major/minor key chord generation;
#X connect 1 0 10 1;
#X connect 1 0 11 1;
#X connect 1 0 17 1;
#X connect 2 0 8 0;
#X connect 2 0 7 0;
#X connect 3 0 10 0;
#X connect 3 0 17 0;
#X connect 4 0 5 1;
#X connect 5 0 18 0;
#X connect 5 0 0 0;
#X connect 6 0 9 0;
#X connect 7 0 13 0;
#X connect 7 0 15 0;
#X connect 8 0 12 0;
#X connect 8 0 14 0;
#X connect 9 0 11 0;
#X connect 10 0 16 0;
#X connect 11 0 5 0;
#X connect 12 0 16 1;
#X connect 13 0 6 1;
#X connect 14 0 6 1;
#X connect 15 0 16 1;
#X connect 16 0 9 0;
#X connect 17 0 6 0;
#X connect 18 0 0 0;
#X restore 38 350 pd arp;
#X obj 17 355 cnv 15 15 15 empty empty empty 20 12 0 14 -4034 -66577
0;
#X obj 193 366 cnv 15 15 15 empty empty empty 20 12 0 14 -4160 -66577
0;
#X obj 231 341 hsl 128 15 0 1 0 0 empty empty empty -2 -8 0 10 -262144
-4032 -66577 0 1;
#X text 363 317 filter;
#X text 364 337 FX;
#N canvas 2202 116 561 447 bass 0;
#X obj 32 71 cnv 15 160 150 empty empty OSC 20 12 0 14 -257985 -66577
0;
#X obj 43 103 inlet;
#X obj 232 390 outlet~;
#X text 45 29 bass;
#X obj 235 201 osc~;
#X obj 235 173 mtof;
#X obj 231 78 < 48;
#X obj 273 88 > 36;
#X obj 234 144 spigot;
#X obj 234 108 &;
#X obj 110 289 outlet;
#X obj 43 155 unpack f f;
#X obj 224 362 lop~ 500;
#X obj 314 282 inlet;
#X obj 233 300 *~ 0.5;
#X obj 328 345 inlet;
#X obj 230 232 wrap~;
#X obj 234 269 *~ 1;
#N canvas 2599 111 450 369 adsr 0;
#X obj 154 19 inlet;
#X obj 40 22 inlet~;
#X obj 155 61 f;
#X obj 222 34 nbx 5 14 5 1e+037 0 0 empty empty empty 0 -8 0 10 -262144
-1 -1 5 256;
#X obj 155 98 t f f;
#X obj 194 133 delay;
#X obj 195 177 f;
#X obj 241 153 nbx 5 14 2000 1e+037 0 0 empty empty empty 0 -8 0 10
-262144 -1 -1 2000 256;
#X msg 194 208 0 \$1;
#X obj 195 246 line~;
#X msg 141 210 1 \$1;
#X obj 151 287 *~;
#X obj 157 328 outlet~;
#X text 248 224 simple ADR based on line~;
#X text 250 245 note is triggered then;
#X text 251 266 ramped down to 0;
#X text 286 35 attack time in ms;
#X text 300 150 decay time in ms;
#X connect 0 0 2 0;
#X connect 1 0 11 0;
#X connect 2 0 4 0;
#X connect 3 0 2 1;
#X connect 4 0 10 0;
#X connect 4 1 5 0;
#X connect 5 0 6 0;
#X connect 6 0 8 0;
#X connect 7 0 6 1;
#X connect 8 0 9 0;
#X connect 9 0 11 1;
#X connect 10 0 9 0;
#X connect 11 0 12 0;
#X restore 230 335 pd adsr;
#X obj 325 313 inlet;
#X text 22 290 keyswap val;
#X text 285 68 ensure correct val range;
#X text 275 174 convert MIDI to frequency;
#X text 276 200 sin wave;
#X text 278 229 distortion (to make bass more audable);
#X text 365 281 volume control;
#X text 371 314 sequence input;
#X text 374 344 filter cutoff;
#X connect 1 0 11 0;
#X connect 4 0 16 0;
#X connect 5 0 4 0;
#X connect 6 0 9 0;
#X connect 7 0 9 1;
#X connect 8 0 5 0;
#X connect 9 0 8 1;
#X connect 11 0 6 0;
#X connect 11 0 7 0;
#X connect 11 0 8 0;
#X connect 11 1 10 0;
#X connect 12 0 2 0;
#X connect 13 0 14 1;
#X connect 14 0 18 0;
#X connect 15 0 12 1;
#X connect 16 0 17 0;
#X connect 17 0 14 0;
#X connect 18 0 12 0;
#X connect 19 0 18 1;
#X restore 440 364 pd bass;
#X obj 501 367 cnv 15 15 15 empty empty empty 20 12 0 14 -258113 -66577
0;
#X text 152 32 mrpeach lib needed;
#X text 152 47 for udp/OSC;
#X text 581 312 filter;
#X text 581 291 volume;
#X text 363 297 volume;
#X text 155 297 volume;
#X text 106 71 routeOSC removes message and sends to correct patch
;
#X text 479 478 audio out;
#X connect 1 0 3 0;
#X connect 2 0 9 1;
#X connect 2 0 24 0;
#X connect 3 0 4 0;
#X connect 4 0 9 0;
#X connect 4 1 26 2;
#X connect 4 2 12 0;
#X connect 4 3 32 0;
#X connect 5 0 9 4;
#X connect 6 0 9 2;
#X connect 9 0 17 0;
#X connect 11 0 26 0;
#X connect 12 0 19 0;
#X connect 13 0 12 3;
#X connect 14 0 32 1;
#X connect 15 0 12 2;
#X connect 16 0 32 3;
#X connect 21 0 10 0;
#X connect 21 0 10 1;
#X connect 22 0 9 3;
#X connect 22 1 32 2;
#X connect 22 2 26 3;
#X connect 23 0 22 1;
#X connect 24 0 22 0;
#X connect 26 0 18 0;
#X connect 29 0 12 1;
#X connect 32 0 26 1;
#X connect 32 1 20 0;
